<svg width="512" height="512" viewBox="0 0 512 512" fill="none" xmlns="http://www.w3.org/2000/svg">
  <defs>
    <linearGradient id="grad" x1="0%" y1="0%" x2="100%" y2="100%">
      <stop offset="0%" style="stop-color:#10B981;stop-opacity:1" />
      <stop offset="100%" style="stop-color:#059669;stop-opacity:1" />
    </linearGradient>
  </defs>
  <rect width="512" height="512" rx="140" fill="url(#grad)"/>
  <path d="M140 380V300C140 288.954 148.954 280 160 280H200C211.046 280 220 288.954 220 300V380" stroke="white" stroke-width="32" stroke-linecap="round"/>
  <path d="M246 380V220C246 208.954 254.954 200 266 200H306C317.046 200 326 208.954 326 220V380" stroke="white" stroke-width="32" stroke-linecap="round"/>
  <path d="M352 380V140C352 128.954 360.954 120 372 120H412C423.046 120 432 128.954 432 140V380" stroke="white" stroke-width="32" stroke-linecap="round"/>
  <circle cx="120" cy="120" r="40" fill="white" fill-opacity="0.2"/>
  <path d="M80 380H432" stroke="white" stroke-width="32" stroke-linecap="round"/>
</svg>
